<svg width="596" height="137" viewBox="0 0 596 137" fill="none" xmlns="http://www.w3.org/2000/svg">
<g filter="url(#filter0_dd)">
<path d="M31.2885 25.52V31.472H12.4085V44.592H27.1285V50.544H12.4085V70H5.1125V25.52H31.2885ZM45.346 39.856C46.4127 38.064 47.8207 36.6773 49.57 35.696C51.362 34.672 53.474 34.16 55.906 34.16V41.712H54.05C51.1913 41.712 49.0153 42.4373 47.522 43.888C46.0713 45.3387 45.346 47.856 45.346 51.44V70H38.05V34.736H45.346V39.856ZM94.5485 34.736V70H87.2525V65.84C86.1005 67.2907 84.5858 68.4427 82.7085 69.296C80.8738 70.1067 78.9112 70.512 76.8205 70.512C74.0472 70.512 71.5512 69.936 69.3325 68.784C67.1565 67.632 65.4285 65.9253 64.1485 63.664C62.9112 61.4027 62.2925 58.672 62.2925 55.472V34.736H69.5245V54.384C69.5245 57.5413 70.3138 59.9733 71.8925 61.68C73.4712 63.344 75.6258 64.176 78.3565 64.176C81.0872 64.176 83.2418 63.344 84.8205 61.68C86.4418 59.9733 87.2525 57.5413 87.2525 54.384V34.736H94.5485ZM107.887 30.064C106.564 30.064 105.455 29.616 104.559 28.72C103.663 27.824 103.215 26.7147 103.215 25.392C103.215 24.0693 103.663 22.96 104.559 22.064C105.455 21.168 106.564 20.72 107.887 20.72C109.167 20.72 110.255 21.168 111.151 22.064C112.047 22.96 112.495 24.0693 112.495 25.392C112.495 26.7147 112.047 27.824 111.151 28.72C110.255 29.616 109.167 30.064 107.887 30.064ZM111.471 34.736V70H104.175V34.736H111.471ZM129.562 40.688V60.208C129.562 61.5307 129.861 62.4907 130.458 63.088C131.098 63.6427 132.165 63.92 133.658 63.92H138.138V70H132.378C129.093 70 126.575 69.232 124.826 67.696C123.077 66.16 122.202 63.664 122.202 60.208V40.688H118.042V34.736H122.202V25.968H129.562V34.736H138.138V40.688H129.562ZM157.663 70.576C154.889 70.576 152.393 70.0853 150.175 69.104C147.999 68.08 146.271 66.7147 144.991 65.008C143.711 63.2587 143.028 61.3173 142.943 59.184H150.495C150.623 60.6773 151.327 61.936 152.607 62.96C153.929 63.9413 155.572 64.432 157.535 64.432C159.583 64.432 161.161 64.048 162.271 63.28C163.423 62.4693 163.999 61.4453 163.999 60.208C163.999 58.8853 163.359 57.904 162.079 57.264C160.841 56.624 158.857 55.92 156.127 55.152C153.481 54.4267 151.327 53.7227 149.663 53.04C147.999 52.3573 146.548 51.312 145.311 49.904C144.116 48.496 143.519 46.64 143.519 44.336C143.519 42.4587 144.073 40.752 145.183 39.216C146.292 37.6373 147.871 36.4 149.919 35.504C152.009 34.608 154.399 34.16 157.087 34.16C161.097 34.16 164.319 35.184 166.751 37.232C169.225 39.2373 170.548 41.9893 170.719 45.488H163.423C163.295 43.9093 162.655 42.6507 161.503 41.712C160.351 40.7733 158.793 40.304 156.831 40.304C154.911 40.304 153.439 40.6667 152.415 41.392C151.391 42.1173 150.879 43.0773 150.879 44.272C150.879 45.2107 151.22 46 151.903 46.64C152.585 47.28 153.417 47.792 154.399 48.176C155.38 48.5173 156.831 48.9653 158.751 49.52C161.311 50.2027 163.401 50.9067 165.023 51.632C166.687 52.3147 168.116 53.3387 169.311 54.704C170.505 56.0693 171.124 57.8827 171.167 60.144C171.167 62.1493 170.612 63.9413 169.503 65.52C168.393 67.0987 166.815 68.336 164.767 69.232C162.761 70.128 160.393 70.576 157.663 70.576ZM206.122 43.76V49.904H179.818V43.76H206.122ZM239.592 70L229.352 52.208H223.784V70H216.488V25.52H231.848C235.261 25.52 238.141 26.1173 240.488 27.312C242.877 28.5067 244.648 30.1067 245.8 32.112C246.994 34.1173 247.592 36.3573 247.592 38.832C247.592 41.7333 246.738 44.3787 245.032 46.768C243.368 49.1147 240.786 50.7147 237.288 51.568L248.296 70H239.592ZM223.784 46.384H231.848C234.578 46.384 236.626 45.7013 237.992 44.336C239.4 42.9707 240.104 41.136 240.104 38.832C240.104 36.528 239.421 34.736 238.056 33.456C236.69 32.1333 234.621 31.472 231.848 31.472H223.784V46.384ZM289.245 51.504C289.245 52.8267 289.16 54.0213 288.989 55.088H262.045C262.258 57.904 263.304 60.1653 265.181 61.872C267.058 63.5787 269.362 64.432 272.093 64.432C276.018 64.432 278.792 62.7893 280.413 59.504H288.285C287.218 62.7467 285.277 65.4133 282.461 67.504C279.688 69.552 276.232 70.576 272.093 70.576C268.722 70.576 265.693 69.8293 263.005 68.336C260.36 66.8 258.269 64.6667 256.733 61.936C255.24 59.1627 254.493 55.9627 254.493 52.336C254.493 48.7093 255.218 45.5307 256.669 42.8C258.162 40.0267 260.232 37.8933 262.877 36.4C265.565 34.9067 268.637 34.16 272.093 34.16C275.421 34.16 278.386 34.8853 280.989 36.336C283.592 37.7867 285.618 39.8347 287.069 42.48C288.52 45.0827 289.245 48.0907 289.245 51.504ZM281.629 49.2C281.586 46.512 280.626 44.3573 278.749 42.736C276.872 41.1147 274.546 40.304 271.773 40.304C269.256 40.304 267.101 41.1147 265.309 42.736C263.517 44.3147 262.45 46.4693 262.109 49.2H281.629ZM293.993 52.336C293.993 48.7093 294.718 45.5307 296.169 42.8C297.662 40.0267 299.71 37.8933 302.313 36.4C304.916 34.9067 307.902 34.16 311.273 34.16C315.54 34.16 319.06 35.184 321.833 37.232C324.649 39.2373 326.548 42.1173 327.529 45.872H319.657C319.017 44.1227 317.993 42.7573 316.585 41.776C315.177 40.7947 313.406 40.304 311.273 40.304C308.286 40.304 305.897 41.3707 304.105 43.504C302.356 45.5947 301.481 48.5387 301.481 52.336C301.481 56.1333 302.356 59.0987 304.105 61.232C305.897 63.3653 308.286 64.432 311.273 64.432C315.497 64.432 318.292 62.576 319.657 58.864H327.529C326.505 62.448 324.585 65.3067 321.769 67.44C318.953 69.5307 315.454 70.576 311.273 70.576C307.902 70.576 304.916 69.8293 302.313 68.336C299.71 66.8 297.662 64.6667 296.169 61.936C294.718 59.1627 293.993 55.9627 293.993 52.336ZM350.096 70.576C346.768 70.576 343.76 69.8293 341.072 68.336C338.384 66.8 336.272 64.6667 334.736 61.936C333.2 59.1627 332.432 55.9627 332.432 52.336C332.432 48.752 333.221 45.5733 334.8 42.8C336.379 40.0267 338.533 37.8933 341.264 36.4C343.995 34.9067 347.045 34.16 350.416 34.16C353.787 34.16 356.837 34.9067 359.568 36.4C362.299 37.8933 364.453 40.0267 366.032 42.8C367.611 45.5733 368.4 48.752 368.4 52.336C368.4 55.92 367.589 59.0987 365.968 61.872C364.347 64.6453 362.128 66.8 359.312 68.336C356.539 69.8293 353.467 70.576 350.096 70.576ZM350.096 64.24C351.973 64.24 353.723 63.792 355.344 62.896C357.008 62 358.352 60.656 359.376 58.864C360.4 57.072 360.912 54.896 360.912 52.336C360.912 49.776 360.421 47.6213 359.44 45.872C358.459 44.08 357.157 42.736 355.536 41.84C353.915 40.944 352.165 40.496 350.288 40.496C348.411 40.496 346.661 40.944 345.04 41.84C343.461 42.736 342.203 44.08 341.264 45.872C340.325 47.6213 339.856 49.776 339.856 52.336C339.856 56.1333 340.816 59.0773 342.736 61.168C344.699 63.216 347.152 64.24 350.096 64.24ZM389.821 34.16C392.551 34.16 394.962 34.7147 397.053 35.824C399.186 36.8907 400.85 38.2347 402.045 39.856V34.736H409.405V70.576C409.405 73.8187 408.722 76.6987 407.357 79.216C405.991 81.776 404.007 83.7813 401.405 85.232C398.845 86.6827 395.773 87.408 392.189 87.408C387.41 87.408 383.442 86.2773 380.285 84.016C377.127 81.7973 375.335 78.768 374.909 74.928H382.141C382.695 76.7627 383.869 78.2347 385.661 79.344C387.495 80.496 389.671 81.072 392.189 81.072C395.133 81.072 397.501 80.176 399.293 78.384C401.127 76.592 402.045 73.9893 402.045 70.576V64.688C400.807 66.352 399.122 67.76 396.989 68.912C394.898 70.0213 392.509 70.576 389.821 70.576C386.749 70.576 383.933 69.808 381.373 68.272C378.855 66.6933 376.85 64.5173 375.357 61.744C373.906 58.928 373.181 55.7493 373.181 52.208C373.181 48.6667 373.906 45.5307 375.357 42.8C376.85 40.0693 378.855 37.9573 381.373 36.464C383.933 34.928 386.749 34.16 389.821 34.16ZM402.045 52.336C402.045 49.904 401.533 47.792 400.509 46C399.527 44.208 398.226 42.8427 396.605 41.904C394.983 40.9653 393.234 40.496 391.357 40.496C389.479 40.496 387.73 40.9653 386.109 41.904C384.487 42.8 383.165 44.144 382.141 45.936C381.159 47.6853 380.669 49.776 380.669 52.208C380.669 54.64 381.159 56.7733 382.141 58.608C383.165 60.4427 384.487 61.8507 386.109 62.832C387.773 63.7707 389.522 64.24 391.357 64.24C393.234 64.24 394.983 63.7707 396.605 62.832C398.226 61.8933 399.527 60.528 400.509 58.736C401.533 56.9013 402.045 54.768 402.045 52.336ZM436.78 34.16C439.553 34.16 442.028 34.736 444.204 35.888C446.422 37.04 448.15 38.7467 449.388 41.008C450.625 43.2693 451.244 46 451.244 49.2V70H444.012V50.288C444.012 47.1307 443.222 44.72 441.644 43.056C440.065 41.3493 437.91 40.496 435.18 40.496C432.449 40.496 430.273 41.3493 428.652 43.056C427.073 44.72 426.284 47.1307 426.284 50.288V70H418.988V34.736H426.284V38.768C427.478 37.3173 428.993 36.1867 430.828 35.376C432.705 34.5653 434.689 34.16 436.78 34.16ZM464.262 30.064C462.939 30.064 461.83 29.616 460.934 28.72C460.038 27.824 459.59 26.7147 459.59 25.392C459.59 24.0693 460.038 22.96 460.934 22.064C461.83 21.168 462.939 20.72 464.262 20.72C465.542 20.72 466.63 21.168 467.526 22.064C468.422 22.96 468.87 24.0693 468.87 25.392C468.87 26.7147 468.422 27.824 467.526 28.72C466.63 29.616 465.542 30.064 464.262 30.064ZM467.846 34.736V70H460.55V34.736H467.846ZM485.937 40.688V60.208C485.937 61.5307 486.236 62.4907 486.833 63.088C487.473 63.6427 488.54 63.92 490.033 63.92H494.513V70H488.753C485.468 70 482.95 69.232 481.201 67.696C479.452 66.16 478.577 63.664 478.577 60.208V40.688H474.417V34.736H478.577V25.968H485.937V34.736H494.513V40.688H485.937ZM504.95 30.064C503.627 30.064 502.518 29.616 501.622 28.72C500.726 27.824 500.278 26.7147 500.278 25.392C500.278 24.0693 500.726 22.96 501.622 22.064C502.518 21.168 503.627 20.72 504.95 20.72C506.23 20.72 507.318 21.168 508.214 22.064C509.11 22.96 509.558 24.0693 509.558 25.392C509.558 26.7147 509.11 27.824 508.214 28.72C507.318 29.616 506.23 30.064 504.95 30.064ZM508.534 34.736V70H501.238V34.736H508.534ZM533.409 70.576C530.081 70.576 527.073 69.8293 524.385 68.336C521.697 66.8 519.585 64.6667 518.049 61.936C516.513 59.1627 515.745 55.9627 515.745 52.336C515.745 48.752 516.534 45.5733 518.113 42.8C519.691 40.0267 521.846 37.8933 524.577 36.4C527.307 34.9067 530.358 34.16 533.729 34.16C537.099 34.16 540.15 34.9067 542.881 36.4C545.611 37.8933 547.766 40.0267 549.345 42.8C550.923 45.5733 551.713 48.752 551.713 52.336C551.713 55.92 550.902 59.0987 549.281 61.872C547.659 64.6453 545.441 66.8 542.625 68.336C539.851 69.8293 536.779 70.576 533.409 70.576ZM533.409 64.24C535.286 64.24 537.035 63.792 538.657 62.896C540.321 62 541.665 60.656 542.689 58.864C543.713 57.072 544.225 54.896 544.225 52.336C544.225 49.776 543.734 47.6213 542.753 45.872C541.771 44.08 540.47 42.736 538.849 41.84C537.227 40.944 535.478 40.496 533.601 40.496C531.723 40.496 529.974 40.944 528.353 41.84C526.774 42.736 525.515 44.08 524.577 45.872C523.638 47.6213 523.169 49.776 523.169 52.336C523.169 56.1333 524.129 59.0773 526.049 61.168C528.011 63.216 530.465 64.24 533.409 64.24ZM576.717 34.16C579.49 34.16 581.965 34.736 584.141 35.888C586.36 37.04 588.088 38.7467 589.325 41.008C590.562 43.2693 591.181 46 591.181 49.2V70H583.949V50.288C583.949 47.1307 583.16 44.72 581.581 43.056C580.002 41.3493 577.848 40.496 575.117 40.496C572.386 40.496 570.21 41.3493 568.589 43.056C567.01 44.72 566.221 47.1307 566.221 50.288V70H558.925V34.736H566.221V38.768C567.416 37.3173 568.93 36.1867 570.765 35.376C572.642 34.5653 574.626 34.16 576.717 34.16Z" fill="white"/>
<path d="M66.5927 105.32V122H63.8567V114.704H56.0087V122H53.2727V105.32H56.0087V112.472H63.8567V105.32H66.5927ZM82.3145 115.064C82.3145 115.56 82.2825 116.008 82.2185 116.408H72.1145C72.1945 117.464 72.5865 118.312 73.2905 118.952C73.9945 119.592 74.8585 119.912 75.8825 119.912C77.3545 119.912 78.3945 119.296 79.0025 118.064H81.9545C81.5545 119.28 80.8265 120.28 79.7705 121.064C78.7305 121.832 77.4345 122.216 75.8825 122.216C74.6185 122.216 73.4825 121.936 72.4745 121.376C71.4825 120.8 70.6985 120 70.1225 118.976C69.5625 117.936 69.2825 116.736 69.2825 115.376C69.2825 114.016 69.5545 112.824 70.0985 111.8C70.6585 110.76 71.4345 109.96 72.4265 109.4C73.4345 108.84 74.5865 108.56 75.8825 108.56C77.1305 108.56 78.2425 108.832 79.2185 109.376C80.1945 109.92 80.9545 110.688 81.4985 111.68C82.0425 112.656 82.3145 113.784 82.3145 115.064ZM79.4585 114.2C79.4425 113.192 79.0825 112.384 78.3785 111.776C77.6745 111.168 76.8025 110.864 75.7625 110.864C74.8185 110.864 74.0105 111.168 73.3385 111.776C72.6665 112.368 72.2665 113.176 72.1385 114.2H79.4585ZM87.743 104.24V122H85.007V104.24H87.743ZM94.0712 110.72C94.5352 110.112 95.1672 109.6 95.9672 109.184C96.7672 108.768 97.6712 108.56 98.6792 108.56C99.8312 108.56 100.879 108.848 101.823 109.424C102.783 109.984 103.535 110.776 104.079 111.8C104.623 112.824 104.895 114 104.895 115.328C104.895 116.656 104.623 117.848 104.079 118.904C103.535 119.944 102.783 120.76 101.823 121.352C100.879 121.928 99.8312 122.216 98.6792 122.216C97.6712 122.216 96.7752 122.016 95.9912 121.616C95.2072 121.2 94.5672 120.688 94.0712 120.08V128.288H91.3352V108.776H94.0712V110.72ZM102.111 115.328C102.111 114.416 101.919 113.632 101.535 112.976C101.167 112.304 100.671 111.8 100.047 111.464C99.4392 111.112 98.7832 110.936 98.0792 110.936C97.3912 110.936 96.7352 111.112 96.1112 111.464C95.5032 111.816 95.0072 112.328 94.6232 113C94.2552 113.672 94.0712 114.464 94.0712 115.376C94.0712 116.288 94.2552 117.088 94.6232 117.776C95.0072 118.448 95.5032 118.96 96.1112 119.312C96.7352 119.664 97.3912 119.84 98.0792 119.84C98.7832 119.84 99.4392 119.664 100.047 119.312C100.671 118.944 101.167 118.416 101.535 117.728C101.919 117.04 102.111 116.24 102.111 115.328ZM112.401 122.216C111.361 122.216 110.425 122.032 109.593 121.664C108.777 121.28 108.129 120.768 107.649 120.128C107.169 119.472 106.913 118.744 106.881 117.944H109.713C109.761 118.504 110.025 118.976 110.505 119.36C111.001 119.728 111.617 119.912 112.353 119.912C113.121 119.912 113.713 119.768 114.129 119.48C114.561 119.176 114.777 118.792 114.777 118.328C114.777 117.832 114.537 117.464 114.057 117.224C113.593 116.984 112.849 116.72 111.825 116.432C110.833 116.16 110.025 115.896 109.401 115.64C108.777 115.384 108.233 114.992 107.769 114.464C107.321 113.936 107.097 113.24 107.097 112.376C107.097 111.672 107.305 111.032 107.721 110.456C108.137 109.864 108.729 109.4 109.497 109.064C110.281 108.728 111.177 108.56 112.185 108.56C113.689 108.56 114.897 108.944 115.809 109.712C116.737 110.464 117.233 111.496 117.297 112.808H114.561C114.513 112.216 114.273 111.744 113.841 111.392C113.409 111.04 112.825 110.864 112.089 110.864C111.369 110.864 110.817 111 110.433 111.272C110.049 111.544 109.857 111.904 109.857 112.352C109.857 112.704 109.985 113 110.241 113.24C110.497 113.48 110.809 113.672 111.177 113.816C111.545 113.944 112.089 114.112 112.809 114.32C113.769 114.576 114.553 114.84 115.161 115.112C115.785 115.368 116.321 115.752 116.769 116.264C117.217 116.776 117.449 117.456 117.465 118.304C117.465 119.056 117.257 119.728 116.841 120.32C116.425 120.912 115.833 121.376 115.065 121.712C114.313 122.048 113.425 122.216 112.401 122.216ZM138.559 108.776L130.447 128.216H127.615L130.303 121.784L125.095 108.776H128.143L131.863 118.856L135.727 108.776H138.559ZM146.36 122.216C145.112 122.216 143.984 121.936 142.976 121.376C141.968 120.8 141.176 120 140.6 118.976C140.024 117.936 139.736 116.736 139.736 115.376C139.736 114.032 140.032 112.84 140.624 111.8C141.216 110.76 142.024 109.96 143.048 109.4C144.072 108.84 145.216 108.56 146.48 108.56C147.744 108.56 148.888 108.84 149.912 109.4C150.936 109.96 151.744 110.76 152.336 111.8C152.928 112.84 153.224 114.032 153.224 115.376C153.224 116.72 152.92 117.912 152.312 118.952C151.704 119.992 150.872 120.8 149.816 121.376C148.776 121.936 147.624 122.216 146.36 122.216ZM146.36 119.84C147.064 119.84 147.72 119.672 148.328 119.336C148.952 119 149.456 118.496 149.84 117.824C150.224 117.152 150.416 116.336 150.416 115.376C150.416 114.416 150.232 113.608 149.864 112.952C149.496 112.28 149.008 111.776 148.4 111.44C147.792 111.104 147.136 110.936 146.432 110.936C145.728 110.936 145.072 111.104 144.464 111.44C143.872 111.776 143.4 112.28 143.048 112.952C142.696 113.608 142.52 114.416 142.52 115.376C142.52 116.8 142.88 117.904 143.6 118.688C144.336 119.456 145.256 119.84 146.36 119.84ZM167.905 108.776V122H165.169V120.44C164.737 120.984 164.169 121.416 163.465 121.736C162.777 122.04 162.041 122.192 161.257 122.192C160.217 122.192 159.281 121.976 158.449 121.544C157.633 121.112 156.985 120.472 156.505 119.624C156.041 118.776 155.809 117.752 155.809 116.552V108.776H158.521V116.144C158.521 117.328 158.817 118.24 159.409 118.88C160.001 119.504 160.809 119.816 161.833 119.816C162.857 119.816 163.665 119.504 164.257 118.88C164.865 118.24 165.169 117.328 165.169 116.144V108.776H167.905ZM180.941 111.008V118.328C180.941 118.824 181.053 119.184 181.277 119.408C181.517 119.616 181.917 119.72 182.477 119.72H184.157V122H181.997C180.765 122 179.821 121.712 179.165 121.136C178.509 120.56 178.181 119.624 178.181 118.328V111.008H176.621V108.776H178.181V105.488H180.941V108.776H184.157V111.008H180.941ZM192.415 122.216C191.167 122.216 190.039 121.936 189.031 121.376C188.023 120.8 187.231 120 186.655 118.976C186.079 117.936 185.791 116.736 185.791 115.376C185.791 114.032 186.087 112.84 186.679 111.8C187.271 110.76 188.079 109.96 189.103 109.4C190.127 108.84 191.271 108.56 192.535 108.56C193.799 108.56 194.943 108.84 195.967 109.4C196.991 109.96 197.799 110.76 198.391 111.8C198.983 112.84 199.279 114.032 199.279 115.376C199.279 116.72 198.975 117.912 198.367 118.952C197.759 119.992 196.927 120.8 195.871 121.376C194.831 121.936 193.679 122.216 192.415 122.216ZM192.415 119.84C193.119 119.84 193.775 119.672 194.383 119.336C195.007 119 195.511 118.496 195.895 117.824C196.279 117.152 196.471 116.336 196.471 115.376C196.471 114.416 196.287 113.608 195.919 112.952C195.551 112.28 195.063 111.776 194.455 111.44C193.847 111.104 193.191 110.936 192.487 110.936C191.783 110.936 191.127 111.104 190.519 111.44C189.927 111.776 189.455 112.28 189.103 112.952C188.751 113.608 188.575 114.416 188.575 115.376C188.575 116.8 188.935 117.904 189.655 118.688C190.391 119.456 191.311 119.84 192.415 119.84ZM213.762 111.008H211.314V122H208.554V111.008H206.994V108.776H208.554V107.84C208.554 106.32 208.954 105.216 209.754 104.528C210.57 103.824 211.842 103.472 213.57 103.472V105.752C212.738 105.752 212.154 105.912 211.818 106.232C211.482 106.536 211.314 107.072 211.314 107.84V108.776H213.762V111.008ZM217.579 107.024C217.083 107.024 216.667 106.856 216.331 106.52C215.995 106.184 215.827 105.768 215.827 105.272C215.827 104.776 215.995 104.36 216.331 104.024C216.667 103.688 217.083 103.52 217.579 103.52C218.059 103.52 218.467 103.688 218.803 104.024C219.139 104.36 219.307 104.776 219.307 105.272C219.307 105.768 219.139 106.184 218.803 106.52C218.467 106.856 218.059 107.024 217.579 107.024ZM218.923 108.776V122H216.187V108.776H218.923ZM229.187 108.56C230.227 108.56 231.155 108.776 231.971 109.208C232.803 109.64 233.451 110.28 233.915 111.128C234.379 111.976 234.611 113 234.611 114.2V122H231.899V114.608C231.899 113.424 231.603 112.52 231.011 111.896C230.419 111.256 229.611 110.936 228.587 110.936C227.563 110.936 226.747 111.256 226.139 111.896C225.547 112.52 225.251 113.424 225.251 114.608V122H222.515V108.776H225.251V110.288C225.699 109.744 226.267 109.32 226.955 109.016C227.659 108.712 228.403 108.56 229.187 108.56ZM237.189 115.328C237.189 114 237.461 112.824 238.005 111.8C238.565 110.776 239.317 109.984 240.261 109.424C241.221 108.848 242.285 108.56 243.453 108.56C244.317 108.56 245.165 108.752 245.997 109.136C246.845 109.504 247.517 110 248.013 110.624V104.24H250.773V122H248.013V120.008C247.565 120.648 246.941 121.176 246.141 121.592C245.357 122.008 244.453 122.216 243.429 122.216C242.277 122.216 241.221 121.928 240.261 121.352C239.317 120.76 238.565 119.944 238.005 118.904C237.461 117.848 237.189 116.656 237.189 115.328ZM248.013 115.376C248.013 114.464 247.821 113.672 247.437 113C247.069 112.328 246.581 111.816 245.973 111.464C245.365 111.112 244.709 110.936 244.005 110.936C243.301 110.936 242.645 111.112 242.037 111.464C241.429 111.8 240.933 112.304 240.549 112.976C240.181 113.632 239.997 114.416 239.997 115.328C239.997 116.24 240.181 117.04 240.549 117.728C240.933 118.416 241.429 118.944 242.037 119.312C242.661 119.664 243.317 119.84 244.005 119.84C244.709 119.84 245.365 119.664 245.973 119.312C246.581 118.96 247.069 118.448 247.437 117.776C247.821 117.088 248.013 116.288 248.013 115.376ZM266.337 122.216C265.089 122.216 263.961 121.936 262.953 121.376C261.945 120.8 261.153 120 260.577 118.976C260.001 117.936 259.713 116.736 259.713 115.376C259.713 114.032 260.009 112.84 260.601 111.8C261.193 110.76 262.001 109.96 263.025 109.4C264.049 108.84 265.193 108.56 266.457 108.56C267.721 108.56 268.865 108.84 269.889 109.4C270.913 109.96 271.721 110.76 272.313 111.8C272.905 112.84 273.201 114.032 273.201 115.376C273.201 116.72 272.897 117.912 272.289 118.952C271.681 119.992 270.849 120.8 269.793 121.376C268.753 121.936 267.601 122.216 266.337 122.216ZM266.337 119.84C267.041 119.84 267.697 119.672 268.305 119.336C268.929 119 269.433 118.496 269.817 117.824C270.201 117.152 270.393 116.336 270.393 115.376C270.393 114.416 270.209 113.608 269.841 112.952C269.473 112.28 268.985 111.776 268.377 111.44C267.769 111.104 267.113 110.936 266.409 110.936C265.705 110.936 265.049 111.104 264.441 111.44C263.849 111.776 263.377 112.28 263.025 112.952C262.673 113.608 262.497 114.416 262.497 115.376C262.497 116.8 262.857 117.904 263.577 118.688C264.313 119.456 265.233 119.84 266.337 119.84ZM287.881 108.776V122H285.145V120.44C284.713 120.984 284.145 121.416 283.441 121.736C282.753 122.04 282.017 122.192 281.233 122.192C280.193 122.192 279.257 121.976 278.425 121.544C277.609 121.112 276.961 120.472 276.481 119.624C276.017 118.776 275.785 117.752 275.785 116.552V108.776H278.497V116.144C278.497 117.328 278.793 118.24 279.385 118.88C279.977 119.504 280.785 119.816 281.809 119.816C282.833 119.816 283.641 119.504 284.233 118.88C284.841 118.24 285.145 117.328 285.145 116.144V108.776H287.881ZM294.683 111.008V118.328C294.683 118.824 294.795 119.184 295.019 119.408C295.259 119.616 295.659 119.72 296.219 119.72H297.899V122H295.739C294.507 122 293.563 121.712 292.907 121.136C292.251 120.56 291.923 119.624 291.923 118.328V111.008H290.363V108.776H291.923V105.488H294.683V108.776H297.899V111.008H294.683ZM309.847 111.008V118.328C309.847 118.824 309.959 119.184 310.183 119.408C310.423 119.616 310.823 119.72 311.383 119.72H313.063V122H310.903C309.671 122 308.727 121.712 308.071 121.136C307.415 120.56 307.087 119.624 307.087 118.328V111.008H305.527V108.776H307.087V105.488H309.847V108.776H313.063V111.008H309.847ZM322.425 108.56C323.433 108.56 324.329 108.776 325.113 109.208C325.913 109.64 326.537 110.28 326.985 111.128C327.449 111.976 327.681 113 327.681 114.2V122H324.969V114.608C324.969 113.424 324.673 112.52 324.081 111.896C323.489 111.256 322.681 110.936 321.657 110.936C320.633 110.936 319.817 111.256 319.209 111.896C318.617 112.52 318.321 113.424 318.321 114.608V122H315.585V104.24H318.321V110.312C318.785 109.752 319.369 109.32 320.073 109.016C320.793 108.712 321.577 108.56 322.425 108.56ZM343.291 115.064C343.291 115.56 343.259 116.008 343.195 116.408H333.091C333.171 117.464 333.563 118.312 334.267 118.952C334.971 119.592 335.835 119.912 336.859 119.912C338.331 119.912 339.371 119.296 339.979 118.064H342.931C342.531 119.28 341.803 120.28 340.747 121.064C339.707 121.832 338.411 122.216 336.859 122.216C335.595 122.216 334.459 121.936 333.451 121.376C332.459 120.8 331.675 120 331.099 118.976C330.539 117.936 330.259 116.736 330.259 115.376C330.259 114.016 330.531 112.824 331.075 111.8C331.635 110.76 332.411 109.96 333.403 109.4C334.411 108.84 335.563 108.56 336.859 108.56C338.107 108.56 339.219 108.832 340.195 109.376C341.171 109.92 341.931 110.688 342.475 111.68C343.019 112.656 343.291 113.784 343.291 115.064ZM340.435 114.2C340.419 113.192 340.059 112.384 339.355 111.776C338.651 111.168 337.779 110.864 336.739 110.864C335.795 110.864 334.987 111.168 334.315 111.776C333.643 112.368 333.243 113.176 333.115 114.2H340.435ZM354.954 110.744C355.418 110.104 356.05 109.584 356.85 109.184C357.666 108.768 358.57 108.56 359.562 108.56C360.73 108.56 361.786 108.84 362.73 109.4C363.674 109.96 364.418 110.76 364.962 111.8C365.506 112.824 365.778 114 365.778 115.328C365.778 116.656 365.506 117.848 364.962 118.904C364.418 119.944 363.666 120.76 362.706 121.352C361.762 121.928 360.714 122.216 359.562 122.216C358.538 122.216 357.626 122.016 356.826 121.616C356.042 121.216 355.418 120.704 354.954 120.08V122H352.218V104.24H354.954V110.744ZM362.994 115.328C362.994 114.416 362.802 113.632 362.418 112.976C362.05 112.304 361.554 111.8 360.93 111.464C360.322 111.112 359.666 110.936 358.962 110.936C358.274 110.936 357.618 111.112 356.994 111.464C356.386 111.816 355.89 112.328 355.506 113C355.138 113.672 354.954 114.464 354.954 115.376C354.954 116.288 355.138 117.088 355.506 117.776C355.89 118.448 356.386 118.96 356.994 119.312C357.618 119.664 358.274 119.84 358.962 119.84C359.666 119.84 360.322 119.664 360.93 119.312C361.554 118.944 362.05 118.416 362.418 117.728C362.802 117.04 362.994 116.24 362.994 115.328ZM380.604 115.064C380.604 115.56 380.572 116.008 380.508 116.408H370.404C370.484 117.464 370.876 118.312 371.58 118.952C372.284 119.592 373.148 119.912 374.172 119.912C375.644 119.912 376.684 119.296 377.292 118.064H380.244C379.844 119.28 379.116 120.28 378.06 121.064C377.02 121.832 375.724 122.216 374.172 122.216C372.908 122.216 371.772 121.936 370.764 121.376C369.772 120.8 368.988 120 368.412 118.976C367.852 117.936 367.572 116.736 367.572 115.376C367.572 114.016 367.844 112.824 368.388 111.8C368.948 110.76 369.724 109.96 370.716 109.4C371.724 108.84 372.876 108.56 374.172 108.56C375.42 108.56 376.532 108.832 377.508 109.376C378.484 109.92 379.244 110.688 379.788 111.68C380.332 112.656 380.604 113.784 380.604 115.064ZM377.748 114.2C377.732 113.192 377.372 112.384 376.668 111.776C375.964 111.168 375.092 110.864 374.052 110.864C373.108 110.864 372.3 111.168 371.628 111.776C370.956 112.368 370.556 113.176 370.428 114.2H377.748ZM389.968 108.56C391.008 108.56 391.936 108.776 392.752 109.208C393.584 109.64 394.232 110.28 394.696 111.128C395.16 111.976 395.392 113 395.392 114.2V122H392.68V114.608C392.68 113.424 392.384 112.52 391.792 111.896C391.2 111.256 390.392 110.936 389.368 110.936C388.344 110.936 387.528 111.256 386.92 111.896C386.328 112.52 386.032 113.424 386.032 114.608V122H383.296V108.776H386.032V110.288C386.48 109.744 387.048 109.32 387.736 109.016C388.44 108.712 389.184 108.56 389.968 108.56ZM411.002 115.064C411.002 115.56 410.97 116.008 410.906 116.408H400.802C400.882 117.464 401.274 118.312 401.978 118.952C402.682 119.592 403.546 119.912 404.57 119.912C406.042 119.912 407.082 119.296 407.69 118.064H410.642C410.242 119.28 409.514 120.28 408.458 121.064C407.418 121.832 406.122 122.216 404.57 122.216C403.306 122.216 402.17 121.936 401.162 121.376C400.17 120.8 399.386 120 398.81 118.976C398.25 117.936 397.97 116.736 397.97 115.376C397.97 114.016 398.242 112.824 398.786 111.8C399.346 110.76 400.122 109.96 401.114 109.4C402.122 108.84 403.274 108.56 404.57 108.56C405.818 108.56 406.93 108.832 407.906 109.376C408.882 109.92 409.642 110.688 410.186 111.68C410.73 112.656 411.002 113.784 411.002 115.064ZM408.146 114.2C408.13 113.192 407.77 112.384 407.066 111.776C406.362 111.168 405.49 110.864 404.45 110.864C403.506 110.864 402.698 111.168 402.026 111.776C401.354 112.368 400.954 113.176 400.826 114.2H408.146ZM419.239 111.008H416.791V122H414.031V111.008H412.471V108.776H414.031V107.84C414.031 106.32 414.431 105.216 415.231 104.528C416.047 103.824 417.319 103.472 419.047 103.472V105.752C418.215 105.752 417.631 105.912 417.295 106.232C416.959 106.536 416.791 107.072 416.791 107.84V108.776H419.239V111.008ZM423.055 107.024C422.559 107.024 422.143 106.856 421.807 106.52C421.471 106.184 421.303 105.768 421.303 105.272C421.303 104.776 421.471 104.36 421.807 104.024C422.143 103.688 422.559 103.52 423.055 103.52C423.535 103.52 423.943 103.688 424.279 104.024C424.615 104.36 424.783 104.776 424.783 105.272C424.783 105.768 424.615 106.184 424.279 106.52C423.943 106.856 423.535 107.024 423.055 107.024ZM424.399 108.776V122H421.663V108.776H424.399ZM431.183 111.008V118.328C431.183 118.824 431.295 119.184 431.519 119.408C431.759 119.616 432.159 119.72 432.719 119.72H434.399V122H432.239C431.007 122 430.063 121.712 429.407 121.136C428.751 120.56 428.423 119.624 428.423 118.328V111.008H426.863V108.776H428.423V105.488H431.183V108.776H434.399V111.008H431.183ZM441.721 122.216C440.681 122.216 439.745 122.032 438.913 121.664C438.097 121.28 437.449 120.768 436.969 120.128C436.489 119.472 436.233 118.744 436.201 117.944H439.033C439.081 118.504 439.345 118.976 439.825 119.36C440.321 119.728 440.937 119.912 441.673 119.912C442.441 119.912 443.033 119.768 443.449 119.48C443.881 119.176 444.097 118.792 444.097 118.328C444.097 117.832 443.857 117.464 443.377 117.224C442.913 116.984 442.169 116.72 441.145 116.432C440.153 116.16 439.345 115.896 438.721 115.64C438.097 115.384 437.553 114.992 437.089 114.464C436.641 113.936 436.417 113.24 436.417 112.376C436.417 111.672 436.625 111.032 437.041 110.456C437.457 109.864 438.049 109.4 438.817 109.064C439.601 108.728 440.497 108.56 441.505 108.56C443.009 108.56 444.217 108.944 445.129 109.712C446.057 110.464 446.553 111.496 446.617 112.808H443.881C443.833 112.216 443.593 111.744 443.161 111.392C442.729 111.04 442.145 110.864 441.409 110.864C440.689 110.864 440.137 111 439.753 111.272C439.369 111.544 439.177 111.904 439.177 112.352C439.177 112.704 439.305 113 439.561 113.24C439.817 113.48 440.129 113.672 440.497 113.816C440.865 113.944 441.409 114.112 442.129 114.32C443.089 114.576 443.873 114.84 444.481 115.112C445.105 115.368 445.641 115.752 446.089 116.264C446.537 116.776 446.769 117.456 446.785 118.304C446.785 119.056 446.577 119.728 446.161 120.32C445.745 120.912 445.153 121.376 444.385 121.712C443.633 122.048 442.745 122.216 441.721 122.216ZM461.712 122.216C460.464 122.216 459.336 121.936 458.328 121.376C457.32 120.8 456.528 120 455.952 118.976C455.376 117.936 455.088 116.736 455.088 115.376C455.088 114.032 455.384 112.84 455.976 111.8C456.568 110.76 457.376 109.96 458.4 109.4C459.424 108.84 460.568 108.56 461.832 108.56C463.096 108.56 464.24 108.84 465.264 109.4C466.288 109.96 467.096 110.76 467.688 111.8C468.28 112.84 468.576 114.032 468.576 115.376C468.576 116.72 468.272 117.912 467.664 118.952C467.056 119.992 466.224 120.8 465.168 121.376C464.128 121.936 462.976 122.216 461.712 122.216ZM461.712 119.84C462.416 119.84 463.072 119.672 463.68 119.336C464.304 119 464.808 118.496 465.192 117.824C465.576 117.152 465.768 116.336 465.768 115.376C465.768 114.416 465.584 113.608 465.216 112.952C464.848 112.28 464.36 111.776 463.752 111.44C463.144 111.104 462.488 110.936 461.784 110.936C461.08 110.936 460.424 111.104 459.816 111.44C459.224 111.776 458.752 112.28 458.4 112.952C458.048 113.608 457.872 114.416 457.872 115.376C457.872 116.8 458.232 117.904 458.952 118.688C459.688 119.456 460.608 119.84 461.712 119.84ZM476.824 111.008H474.376V122H471.616V111.008H470.056V108.776H471.616V107.84C471.616 106.32 472.016 105.216 472.816 104.528C473.632 103.824 474.904 103.472 476.632 103.472V105.752C475.8 105.752 475.216 105.912 474.88 106.232C474.544 106.536 474.376 107.072 474.376 107.84V108.776H476.824V111.008ZM491.028 111.008H488.58V122H485.82V111.008H484.26V108.776H485.82V107.84C485.82 106.32 486.22 105.216 487.02 104.528C487.836 103.824 489.108 103.472 490.836 103.472V105.752C490.004 105.752 489.42 105.912 489.084 106.232C488.748 106.536 488.58 107.072 488.58 107.84V108.776H491.028V111.008ZM496.188 110.696C496.588 110.024 497.116 109.504 497.772 109.136C498.444 108.752 499.236 108.56 500.148 108.56V111.392H499.452C498.38 111.392 497.564 111.664 497.004 112.208C496.46 112.752 496.188 113.696 496.188 115.04V122H493.452V108.776H496.188V110.696ZM514.639 108.776V122H511.903V120.44C511.471 120.984 510.903 121.416 510.199 121.736C509.511 122.04 508.775 122.192 507.991 122.192C506.951 122.192 506.015 121.976 505.183 121.544C504.367 121.112 503.719 120.472 503.239 119.624C502.775 118.776 502.543 117.752 502.543 116.552V108.776H505.255V116.144C505.255 117.328 505.551 118.24 506.143 118.88C506.735 119.504 507.543 119.816 508.567 119.816C509.591 119.816 510.399 119.504 510.991 118.88C511.599 118.24 511.903 117.328 511.903 116.144V108.776H514.639ZM519.641 107.024C519.145 107.024 518.729 106.856 518.393 106.52C518.057 106.184 517.889 105.768 517.889 105.272C517.889 104.776 518.057 104.36 518.393 104.024C518.729 103.688 519.145 103.52 519.641 103.52C520.121 103.52 520.529 103.688 520.865 104.024C521.201 104.36 521.369 104.776 521.369 105.272C521.369 105.768 521.201 106.184 520.865 106.52C520.529 106.856 520.121 107.024 519.641 107.024ZM520.985 108.776V122H518.249V108.776H520.985ZM527.769 111.008V118.328C527.769 118.824 527.881 119.184 528.105 119.408C528.345 119.616 528.745 119.72 529.305 119.72H530.985V122H528.825C527.593 122 526.649 121.712 525.993 121.136C525.337 120.56 525.009 119.624 525.009 118.328V111.008H523.449V108.776H525.009V105.488H527.769V108.776H530.985V111.008H527.769ZM538.307 122.216C537.267 122.216 536.331 122.032 535.499 121.664C534.683 121.28 534.035 120.768 533.555 120.128C533.075 119.472 532.819 118.744 532.787 117.944H535.619C535.667 118.504 535.931 118.976 536.411 119.36C536.907 119.728 537.523 119.912 538.259 119.912C539.027 119.912 539.619 119.768 540.035 119.48C540.467 119.176 540.683 118.792 540.683 118.328C540.683 117.832 540.443 117.464 539.963 117.224C539.499 116.984 538.755 116.72 537.731 116.432C536.739 116.16 535.931 115.896 535.307 115.64C534.683 115.384 534.139 114.992 533.675 114.464C533.227 113.936 533.003 113.24 533.003 112.376C533.003 111.672 533.211 111.032 533.627 110.456C534.043 109.864 534.635 109.4 535.403 109.064C536.187 108.728 537.083 108.56 538.091 108.56C539.595 108.56 540.803 108.944 541.715 109.712C542.643 110.464 543.139 111.496 543.203 112.808H540.467C540.419 112.216 540.179 111.744 539.747 111.392C539.315 111.04 538.731 110.864 537.995 110.864C537.275 110.864 536.723 111 536.339 111.272C535.955 111.544 535.763 111.904 535.763 112.352C535.763 112.704 535.891 113 536.147 113.24C536.403 113.48 536.715 113.672 537.083 113.816C537.451 113.944 537.995 114.112 538.715 114.32C539.675 114.576 540.459 114.84 541.067 115.112C541.691 115.368 542.227 115.752 542.675 116.264C543.123 116.776 543.355 117.456 543.371 118.304C543.371 119.056 543.163 119.728 542.747 120.32C542.331 120.912 541.739 121.376 540.971 121.712C540.219 122.048 539.331 122.216 538.307 122.216Z" fill="white"/>
</g>
<defs>
<filter id="filter0_dd" x="1.1125" y="20.72" width="594.068" height="115.568" filterUnits="userSpaceOnUse" color-interpolation-filters="sRGB">
<feFlood flood-opacity="0" result="BackgroundImageFix"/>
<feColorMatrix in="SourceAlpha" type="matrix" values="0 0 0 0 0 0 0 0 0 0 0 0 0 0 0 0 0 0 127 0"/>
<feOffset dy="4"/>
<feGaussianBlur stdDeviation="2"/>
<feColorMatrix type="matrix" values="0 0 0 0 0 0 0 0 0 0 0 0 0 0 0 0 0 0 0.25 0"/>
<feBlend mode="normal" in2="BackgroundImageFix" result="effect1_dropShadow"/>
<feColorMatrix in="SourceAlpha" type="matrix" values="0 0 0 0 0 0 0 0 0 0 0 0 0 0 0 0 0 0 127 0"/>
<feOffset dy="4"/>
<feGaussianBlur stdDeviation="2"/>
<feColorMatrix type="matrix" values="0 0 0 0 0 0 0 0 0 0 0 0 0 0 0 0 0 0 0.25 0"/>
<feBlend mode="normal" in2="effect1_dropShadow" result="effect2_dropShadow"/>
<feBlend mode="normal" in="SourceGraphic" in2="effect2_dropShadow" result="shape"/>
</filter>
</defs>
</svg>
